<svg width="25" height="25" viewBox="0 0 25 25" fill="none" xmlns="http://www.w3.org/2000/svg">
<path d="M12.5 7.29163V14.5833M12.5 14.5833L15.625 11.4583M12.5 14.5833L9.375 11.4583" stroke="white" stroke-width="2" stroke-linecap="round" stroke-linejoin="round"/>
<path d="M16.6668 17.7084H12.5002H8.3335" stroke="white" stroke-width="2" stroke-linecap="round"/>
<path d="M22.9168 12.5C22.9168 17.4105 22.9168 19.8658 21.3913 21.3912C19.8659 22.9167 17.4106 22.9167 12.5002 22.9167C7.58969 22.9167 5.13446 22.9167 3.60899 21.3912C2.0835 19.8658 2.0835 17.4105 2.0835 12.5C2.0835 7.58957 2.0835 5.13434 3.60899 3.60886C5.13446 2.08337 7.58969 2.08337 12.5002 2.08337C17.4106 2.08337 19.8659 2.08337 21.3913 3.60886C22.4057 4.62318 22.7456 6.04853 22.8594 8.33337" stroke="white" stroke-width="2" stroke-linecap="round"/>
</svg>
