<svg width="21" height="21" viewBox="0 0 21 21" fill="none" xmlns="http://www.w3.org/2000/svg">
<path d="M20.5796 3.73018L17.1004 0.250558C16.9399 0.0900373 16.7221 0 16.4952 0C16.2678 0 16.0505 0.0900373 15.8899 0.250558L0.250267 15.8898C0.0861082 16.0539 -0.00438387 16.2781 0.000163476 16.5105L0.0620073 19.9283C0.0701925 20.3885 0.44171 20.76 0.902356 20.7686L4.31968 20.83C4.32469 20.83 4.33014 20.83 4.33514 20.83C4.56206 20.83 4.77987 20.74 4.9404 20.579L20.5801 4.94023C20.9134 4.606 20.9134 4.06441 20.5796 3.73018ZM14.3816 8.71816L12.112 6.44858L13.1292 5.4318L15.3984 7.70092L14.3816 8.71816ZM6.42965 16.6692L4.16053 14.4005L10.9024 7.65863L13.1715 9.92775L6.42965 16.6692ZM3.98682 19.112L1.75817 19.072L1.71769 16.8433L2.95048 15.6101L5.2196 17.8792L3.98682 19.112ZM16.6089 6.49042L14.3393 4.2213L16.4952 2.0654L18.7643 4.33498L16.6089 6.49042Z" fill="white"/>
</svg>
