<svg width="222" height="59" viewBox="0 0 222 59" fill="none" xmlns="http://www.w3.org/2000/svg">
<g filter="url(#filter0_d_70_120)">
<rect x="4" width="214" height="51" rx="12" fill="#2C80FF"/>
<path d="M44.0227 37V13.7273H53.3409C55.053 13.7273 56.4811 13.9811 57.625 14.4886C58.7689 14.9962 59.6288 15.7008 60.2045 16.6023C60.7803 17.4962 61.0682 18.5265 61.0682 19.6932C61.0682 20.6023 60.8864 21.4015 60.5227 22.0909C60.1591 22.7727 59.6591 23.3333 59.0227 23.7727C58.3939 24.2045 57.6742 24.5114 56.8636 24.6932V24.9205C57.75 24.9583 58.5795 25.2083 59.3523 25.6705C60.1326 26.1326 60.7652 26.7803 61.25 27.6136C61.7348 28.4394 61.9773 29.4242 61.9773 30.5682C61.9773 31.803 61.6705 32.9053 61.0568 33.875C60.4508 34.8371 59.553 35.5985 58.3636 36.1591C57.1742 36.7197 55.7083 37 53.9659 37H44.0227ZM48.9432 32.9773H52.9545C54.3258 32.9773 55.3258 32.7159 55.9545 32.1932C56.5833 31.6629 56.8977 30.9583 56.8977 30.0795C56.8977 29.4356 56.7424 28.8674 56.4318 28.375C56.1212 27.8826 55.678 27.4962 55.1023 27.2159C54.5341 26.9356 53.8561 26.7955 53.0682 26.7955H48.9432V32.9773ZM48.9432 23.4659H52.5909C53.2652 23.4659 53.8636 23.3485 54.3864 23.1136C54.9167 22.8712 55.3333 22.5303 55.6364 22.0909C55.947 21.6515 56.1023 21.125 56.1023 20.5114C56.1023 19.6705 55.803 18.9924 55.2045 18.4773C54.6136 17.9621 53.7727 17.7045 52.6818 17.7045H48.9432V23.4659ZM68.0767 43.5455C67.4631 43.5455 66.8873 43.4962 66.3494 43.3977C65.8191 43.3068 65.3797 43.1894 65.0312 43.0455L66.1222 39.4318C66.6903 39.6061 67.2017 39.7008 67.6562 39.7159C68.1184 39.7311 68.5161 39.625 68.8494 39.3977C69.1903 39.1705 69.4669 38.7841 69.679 38.2386L69.9631 37.5L63.7017 19.5455H68.7926L72.4062 32.3636H72.5881L76.2358 19.5455H81.3608L74.5767 38.8864C74.2509 39.8258 73.8078 40.6439 73.2472 41.3409C72.6941 42.0455 71.9934 42.5871 71.1449 42.9659C70.2964 43.3523 69.2737 43.5455 68.0767 43.5455ZM81.9489 17.7841V13.7273H101.062V17.7841H93.9375V37H89.0739V17.7841H81.9489ZM109.474 37.3409C107.709 37.3409 106.183 36.9659 104.895 36.2159C103.615 35.4583 102.626 34.4053 101.929 33.0568C101.232 31.7008 100.884 30.1288 100.884 28.3409C100.884 26.5379 101.232 24.9621 101.929 23.6136C102.626 22.2576 103.615 21.2045 104.895 20.4545C106.183 19.697 107.709 19.3182 109.474 19.3182C111.24 19.3182 112.762 19.697 114.043 20.4545C115.33 21.2045 116.323 22.2576 117.02 23.6136C117.717 24.9621 118.065 26.5379 118.065 28.3409C118.065 30.1288 117.717 31.7008 117.02 33.0568C116.323 34.4053 115.33 35.4583 114.043 36.2159C112.762 36.9659 111.24 37.3409 109.474 37.3409ZM109.497 33.5909C110.3 33.5909 110.971 33.3636 111.509 32.9091C112.046 32.447 112.452 31.8182 112.724 31.0227C113.005 30.2273 113.145 29.322 113.145 28.3068C113.145 27.2917 113.005 26.3864 112.724 25.5909C112.452 24.7955 112.046 24.1667 111.509 23.7045C110.971 23.2424 110.3 23.0114 109.497 23.0114C108.687 23.0114 108.005 23.2424 107.452 23.7045C106.906 24.1667 106.493 24.7955 106.213 25.5909C105.94 26.3864 105.804 27.2917 105.804 28.3068C105.804 29.322 105.94 30.2273 106.213 31.0227C106.493 31.8182 106.906 32.447 107.452 32.9091C108.005 33.3636 108.687 33.5909 109.497 33.5909ZM121.304 37V13.7273H130.622C132.334 13.7273 133.762 13.9811 134.906 14.4886C136.05 14.9962 136.91 15.7008 137.486 16.6023C138.062 17.4962 138.349 18.5265 138.349 19.6932C138.349 20.6023 138.168 21.4015 137.804 22.0909C137.44 22.7727 136.94 23.3333 136.304 23.7727C135.675 24.2045 134.955 24.5114 134.145 24.6932V24.9205C135.031 24.9583 135.861 25.2083 136.634 25.6705C137.414 26.1326 138.046 26.7803 138.531 27.6136C139.016 28.4394 139.259 29.4242 139.259 30.5682C139.259 31.803 138.952 32.9053 138.338 33.875C137.732 34.8371 136.834 35.5985 135.645 36.1591C134.455 36.7197 132.99 37 131.247 37H121.304ZM126.224 32.9773H130.236C131.607 32.9773 132.607 32.7159 133.236 32.1932C133.865 31.6629 134.179 30.9583 134.179 30.0795C134.179 29.4356 134.024 28.8674 133.713 28.375C133.402 27.8826 132.959 27.4962 132.384 27.2159C131.815 26.9356 131.137 26.7955 130.349 26.7955H126.224V32.9773ZM126.224 23.4659H129.872C130.546 23.4659 131.145 23.3485 131.668 23.1136C132.198 22.8712 132.615 22.5303 132.918 22.0909C133.228 21.6515 133.384 21.125 133.384 20.5114C133.384 19.6705 133.084 18.9924 132.486 18.4773C131.895 17.9621 131.054 17.7045 129.963 17.7045H126.224V23.4659ZM153.562 29.5682V19.5455H158.403V37H153.756V33.8295H153.574C153.18 34.8523 152.525 35.6742 151.608 36.2955C150.699 36.9167 149.589 37.2273 148.278 37.2273C147.112 37.2273 146.085 36.9621 145.199 36.4318C144.313 35.9015 143.619 35.1477 143.119 34.1705C142.627 33.1932 142.377 32.0227 142.369 30.6591V19.5455H147.21V29.7955C147.218 30.8258 147.494 31.6402 148.04 32.2386C148.585 32.8371 149.316 33.1364 150.233 33.1364C150.816 33.1364 151.362 33.0038 151.869 32.7386C152.377 32.4659 152.786 32.0644 153.097 31.5341C153.415 31.0038 153.57 30.3485 153.562 29.5682ZM165.264 43.5455C164.651 43.5455 164.075 43.4962 163.537 43.3977C163.007 43.3068 162.567 43.1894 162.219 43.0455L163.31 39.4318C163.878 39.6061 164.389 39.7008 164.844 39.7159C165.306 39.7311 165.704 39.625 166.037 39.3977C166.378 39.1705 166.654 38.7841 166.866 38.2386L167.151 37.5L160.889 19.5455H165.98L169.594 32.3636H169.776L173.423 19.5455H178.548L171.764 38.8864C171.438 39.8258 170.995 40.6439 170.435 41.3409C169.882 42.0455 169.181 42.5871 168.332 42.9659C167.484 43.3523 166.461 43.5455 165.264 43.5455Z" fill="white"/>
</g>
<defs>
<filter id="filter0_d_70_120" x="0" y="0" width="222" height="59" filterUnits="userSpaceOnUse" color-interpolation-filters="sRGB">
<feFlood flood-opacity="0" result="BackgroundImageFix"/>
<feColorMatrix in="SourceAlpha" type="matrix" values="0 0 0 0 0 0 0 0 0 0 0 0 0 0 0 0 0 0 127 0" result="hardAlpha"/>
<feOffset dy="4"/>
<feGaussianBlur stdDeviation="2"/>
<feComposite in2="hardAlpha" operator="out"/>
<feColorMatrix type="matrix" values="0 0 0 0 0 0 0 0 0 0 0 0 0 0 0 0 0 0 0.35 0"/>
<feBlend mode="normal" in2="BackgroundImageFix" result="effect1_dropShadow_70_120"/>
<feBlend mode="normal" in="SourceGraphic" in2="effect1_dropShadow_70_120" result="shape"/>
</filter>
</defs>
</svg>
